<?xml version="1.0" encoding="utf-8"?>
<svg version="1.1" id="Layer_1" xmlns="http://www.w3.org/2000/svg" xmlns:xlink="http://www.w3.org/1999/xlink" x="0px" y="0px"
	 viewBox="0 0 900 700" style="enable-background:new 0 0 900 700;" xml:space="preserve">
<style type="text/css">
	.st0{fill:#33A3DC;}
	.st1{fill:#8DC63F;}
</style>
<g>
	<path class="st0" d="M703.2,552.5h11.5V437.8h-11.5V552.5L703.2,552.5z M754.5,552.5H766V448.2h26.1v-10.4h-64v10.4h26.4V552.5
		L754.5,552.5z"/>
	<path class="st1" d="M571.2,552.5h11.5v-84.9h-11.5V552.5L571.2,552.5z M571.2,457.3h11.5v-19.6h-11.5V457.3L571.2,457.3z
		 M604.4,552.5h11.5v-44.7c0.2-7.1,0-14.6,4.5-20.7c4.7-6.5,12.9-10.4,20.8-10.4c8.7,0,16.8,3.7,21.9,10.9c4.3,6.1,5,12.9,5,20.2
		v44.7h11.5v-44.7c0-10.7-1.2-19.7-7.8-28c-7.6-9.2-18.8-14.1-30.1-14.1c-11.2,0-19.9,5-26.1,14.1h-0.3v-12.3h-10.9V552.5
		L604.4,552.5z"/>
	<path class="st0" d="M215.1,467.3c-3.1-8.4-12.6-17.1-19.9-21.7c-9.8-6.5-21.4-9.6-33.1-9.6c-32.6,0-59.3,26.2-59.3,58.9
		c0,33.9,26.6,59.8,60.3,59.8c21.6,0,42.6-12.9,52.5-32h-12.7c-9,12.6-24.2,21-39.8,21c-26.1,0-48.8-21.9-48.8-48.8
		c0-25.2,21.9-47.8,48-47.8c15.4,0,31.5,7.3,40.1,20.3H215.1L215.1,467.3z M231.5,552.5H243V437.8h-11.5V552.5L231.5,552.5z
		 M305.3,465.7c-24.8,0-44.6,20.2-44.6,44.9c0,24.4,20.5,43.9,44.6,43.9c24.5,0,44.1-20.8,44.1-45
		C349.5,485.9,329,465.7,305.3,465.7L305.3,465.7z M305.3,476.7c8.4,0,16.6,3.6,22.7,9.3c6.8,6.5,9.9,14.1,9.9,23.5
		c0,18.5-13.7,34-32.6,34c-18.2,0-33.1-14.8-33.1-32.9C272.3,492.1,286.6,476.7,305.3,476.7L305.3,476.7z M441.3,467.6h-11.5v44.9
		c0,7.3-0.8,14.6-5.1,20.7c-5,6.7-12.6,10.4-20.8,10.4c-9.3,0-17.5-4.2-22.2-12.3c-3.4-5.7-3.7-12.3-3.7-18.8v-44.9h-11.5v44.9
		c0,11.2,0.9,21.4,6.1,26.9c9.6,11.3,18.9,15.2,29.8,15.2c11.8,0,22.5-4.3,27.8-15.2h0.3v13.2h10.9V467.6L441.3,467.6z M549.2,437.8
		h-11.5v44.6h-0.3c-6.7-11-19.9-16.6-32.6-16.6c-24.7,0-45.7,18.8-45.7,44.1c0,12.4,5.1,23.6,9.3,27.2c12,12.6,23.3,17.5,35.6,17.5
		c14.8,0,25.8-5.6,34-17.5h0.3v15.5h10.9V437.8L549.2,437.8z M538,509.7c0,18.6-15.1,33.9-33.7,33.9s-33.7-15.2-33.7-33.9
		c0-18.3,15.4-32.9,33.4-32.9C522.5,476.7,538,490.9,538,509.7L538,509.7z"/>
	<path class="st0" d="M639.5,295.2c0-50.3-40.8-91.1-91.1-91.1c-1.9,0-3.8,0.2-5.6,0.3c-1-3.4-2.3-6.8-3.6-10
		c-0.2-0.4-0.3-0.8-0.5-1.2c-1.1-2.6-2.3-5.1-3.6-7.6c-0.2-0.4-0.4-0.8-0.6-1.1c-1.5-2.7-3.1-5.4-4.8-8c0,0,0,0,0,0
		c-5.5-8.1-12.1-15.4-19.7-21.7c-0.1-0.1-0.2-0.2-0.3-0.2c-17.7-14.6-40.3-23.4-65-23.4c-28.8,0-54.8,11.9-73.4,31.1
		c-0.1,0.2-0.3,0.3-0.4,0.5c-1.5,1.5-2.9,3.1-4.3,4.7c-0.2,0.3-0.5,0.5-0.7,0.8c-1.3,1.6-2.5,3.2-3.8,4.8c-0.2,0.3-0.4,0.6-0.7,0.9
		c-1.2,1.7-2.4,3.5-3.5,5.3c-0.1,0.2-0.3,0.4-0.4,0.6c-0.3,0.5-0.6,0.9-0.9,1.4c-1.5-0.1-2.9-0.2-4.4-0.2
		c-56.7,0-102.6,45.9-102.6,102.6s45.9,102.6,102.6,102.6c0.2,0,0.3,0,0.4,0v0h195.5v0c0.1,0,0.2,0,0.3,0
		C598.8,386.3,639.5,345.5,639.5,295.2L639.5,295.2z M621.2,295.2c0,40.2-32.6,72.8-72.8,72.8c-0.1,0-0.1,0-0.2,0v0h-54.3h-83.5
		h-57.8c-46.4,0-84.1-37.6-84.1-84.1s37.6-84.1,84.1-84.1c4.8,0,9.5,0.5,14.1,1.3c1.3-3,2.8-6,4.4-8.8c1.7-3,3.6-6,5.7-8.8
		c0.1-0.2,0.2-0.3,0.4-0.5c2.1-2.8,4.4-5.5,6.9-8.1c0,0,0,0,0,0c5-5.1,10.6-9.6,16.8-13.3c0.2-0.1,0.4-0.3,0.7-0.4
		c2.9-1.7,5.9-3.2,9-4.6c0.4-0.2,0.9-0.4,1.3-0.6c3-1.3,6.1-2.4,9.3-3.3c0.5-0.1,1-0.3,1.5-0.4c3.2-0.9,6.5-1.6,9.9-2.1
		c0.4-0.1,0.8-0.1,1.2-0.1c3.6-0.5,7.2-0.7,10.8-0.7c2.8,0,5.6,0.1,8.4,0.4c0.9,0.1,1.8,0.3,2.7,0.4c1.8,0.2,3.6,0.5,5.4,0.8
		c1.1,0.2,2.1,0.5,3.2,0.8c1.6,0.4,3.2,0.7,4.7,1.2c1.1,0.3,2.2,0.7,3.2,1.1c1.4,0.5,2.9,1,4.3,1.6c1.1,0.4,2.1,0.9,3.2,1.4
		c1.3,0.6,2.7,1.2,4,1.9c1,0.6,2.1,1.1,3.1,1.7c1.3,0.7,2.5,1.5,3.7,2.3c1,0.7,2,1.3,2.9,2c1.2,0.8,2.3,1.7,3.4,2.6
		c0.9,0.7,1.9,1.5,2.8,2.3c1.1,0.9,2.1,1.9,3.2,2.9c0.9,0.8,1.7,1.7,2.5,2.5c1,1,1.9,2.1,2.9,3.2c0.8,0.9,1.6,1.8,2.3,2.8
		c0.9,1.1,1.7,2.3,2.6,3.4c0.7,1,1.4,1.9,2,2.9c0.8,1.2,1.5,2.5,2.3,3.7c0.6,1,1.2,2,1.8,3.1c0.7,1.3,1.3,2.7,1.9,4
		c0.5,1,1,2.1,1.4,3.1c0.6,1.4,1.1,2.9,1.6,4.4c0.4,1,0.8,2.1,1.1,3.1c0.5,1.7,0.9,3.4,1.3,5.1c0.2,0.9,0.5,1.8,0.7,2.8
		c1.1,5.4,1.7,11,1.7,16.8c0,45.1-35.5,81.9-80.1,84.2v-7.2v-6V300c-7.9,16.2-24.1,27.5-43.2,28.4v0.2c12,4.9,25.1,7.7,38.8,7.7
		c56.6,0,102.5-45.9,102.5-102.5c0-3.8-0.2-7.6-0.7-11.3c0.6,0,1.3-0.1,1.9-0.1C588.6,222.4,621.2,255,621.2,295.2L621.2,295.2z"/>
</g>
</svg>